<svg width="150" height="150" viewBox="0 0 150 150" fill="none" xmlns="http://www.w3.org/2000/svg">
<g clip-path="url(#clip0_21_946)">
<path d="M74.9971 149.994C116.417 149.994 149.994 116.417 149.994 74.9971C149.994 33.5773 116.417 0 74.9971 0C33.5773 0 0 33.5773 0 74.9971C0 116.417 33.5773 149.994 74.9971 149.994Z" fill="#25475D"/>
<path d="M103.74 43.8168C100.527 43.8168 94.6254 44.19 87.447 44.7907C91.7039 33.5828 95.9666 25.139 99.4771 22.5207C100.97 21.4011 102.469 21.6985 102.614 21.0979C102.912 20.0541 100.375 19.0044 97.8327 18.4854C95.2144 17.9606 93.1268 17.6632 92.6019 18.7828C90.5843 23.1155 86.7706 32.9064 82.5137 45.1581C64.3549 46.8025 41.1169 49.4907 32.8947 51.2868C30.6496 51.8116 32.6673 55.9927 33.8627 55.6195C46.8666 51.8116 66.7457 48.896 81.8373 47.1757C79.1082 55.223 76.2333 64.2383 73.5976 73.4576C67.2939 80.4494 51.2401 97.3429 44.4699 97.4653C41.3327 97.4653 39.764 95.2261 39.764 91.7856C39.764 85.2836 42.5281 78.4085 45.9686 73.3293C47.164 74.8222 48.3594 76.3208 50.8261 76.3208C54.9372 76.3208 58.9725 71.0143 58.9725 67.5038C58.9725 64.8156 57.0307 63.0195 53.4444 63.0195C45.298 63.0195 35.4372 77.5921 35.4372 88.7241C35.4372 95.6751 39.6241 99.1098 45.3038 99.1098C51.2868 99.1098 64.7339 85.7501 72.408 77.732C67.6671 94.917 63.935 112.382 63.6143 125.188C63.3927 135.573 69.5914 139.235 71.6091 138.565C74.0757 137.818 68.2444 136.471 68.6234 125.712C69.3698 106.131 77.8894 70.6353 86.7823 46.6509C94.0306 45.9045 99.5588 45.5313 101.652 45.5313C114.207 45.6071 114.58 48.2195 113.309 49.1175C112.487 49.6424 113.157 50.762 113.682 50.762C114.732 50.6862 115.624 49.6424 115.624 48.2195C115.624 47.2457 114.505 43.811 103.74 43.811V43.8168ZM55.6953 65.1888C56.3659 65.1888 56.5933 65.6378 56.5933 66.1626C56.5933 70.4953 51.2868 74.1574 49.3449 74.1574C48.4469 74.1574 47.2515 73.5568 46.5051 72.5129C49.6423 68.1044 53.1587 65.1888 55.6953 65.1888Z" fill="#CBBBA0"/>
<path d="M83.8199 93.2142C82.4729 93.2142 80.9509 95.2785 80.9509 96.9813C80.9509 98.3283 81.9364 99.0456 82.9219 99.0456C84.2689 99.0456 85.7909 96.9813 85.7909 95.2785C85.7909 93.9315 84.8054 93.2142 83.8199 93.2142Z" fill="#CBBBA0"/>
</g>
<defs>
<clipPath id="clip0_21_946">
<rect width="150" height="150" fill="white"/>
</clipPath>
</defs>
</svg>
