<svg width="52" height="52" viewBox="0 0 52 52" fill="none" xmlns="http://www.w3.org/2000/svg">
<circle cx="26" cy="26" r="26" fill="#25475D"/>
<path d="M24.4735 38.5689C24.7411 38.8449 25.1041 39 25.4825 39C25.8609 39 26.2238 38.8449 26.4914 38.5689L34.5643 30.2388C34.7006 30.103 34.8094 29.9405 34.8841 29.7608C34.9589 29.5812 34.9983 29.388 34.9999 29.1924C35.0016 28.9969 34.9655 28.803 34.8937 28.6221C34.822 28.4411 34.716 28.2767 34.582 28.1384C34.448 28.0002 34.2887 27.8908 34.1133 27.8168C33.9379 27.7427 33.75 27.7055 33.5605 27.7072C33.371 27.7089 33.1838 27.7495 33.0097 27.8267C32.8356 27.9038 32.6781 28.016 32.5465 28.1567L26.9095 33.9731L26.9095 14.4725C26.9095 14.082 26.7592 13.7074 26.4916 13.4313C26.2239 13.1551 25.8609 13 25.4825 13C25.104 13 24.741 13.1551 24.4734 13.4313C24.2057 13.7074 24.0554 14.082 24.0554 14.4725L24.0554 33.9731L18.4185 28.1567C18.1493 27.8884 17.7888 27.74 17.4147 27.7434C17.0405 27.7467 16.6826 27.9016 16.418 28.1746C16.1534 28.4476 16.0033 28.8169 16.0001 29.203C15.9968 29.5891 16.1406 29.9611 16.4006 30.2388L24.4735 38.5689Z" fill="white"/>
</svg>
