<svg width="79" height="61" viewBox="0 0 79 61" fill="none" xmlns="http://www.w3.org/2000/svg">
<g clip-path="url(#clip0_21_565)">
<path d="M75.47 0H3.35C1.5 0 0 1.5 0 3.35V47.02C0 48.87 1.5 50.37 3.35 50.37H26.96V57.48H24.62C24.26 57.48 23.97 57.77 23.97 58.13V59.49C23.97 59.85 24.26 60.14 24.62 60.14H54.2C54.56 60.14 54.86 59.85 54.86 59.49V58.13C54.86 57.77 54.56 57.48 54.2 57.48H51.85V50.37H75.47C77.32 50.37 78.82 48.87 78.82 47.02V3.35C78.82 1.5 77.32 0 75.47 0ZM70.21 49.03C69.46 49.03 68.85 48.43 68.85 47.68C68.85 46.93 69.46 46.32 70.21 46.32C70.96 46.32 71.57 46.93 71.57 47.68C71.57 48.43 70.96 49.03 70.21 49.03ZM74.34 41.67C74.34 43.52 72.84 45.02 70.99 45.02H7.84C5.99 45.02 4.49 43.52 4.49 41.67V7.59C4.49 5.74 5.99 4.24 7.84 4.24H70.99C72.84 4.24 74.34 5.74 74.34 7.59V41.67Z" fill="#25475D"/>
</g>
<defs>
<clipPath id="clip0_21_565">
<rect width="78.82" height="60.14" fill="white"/>
</clipPath>
</defs>
</svg>
