<svg width="58" height="46" viewBox="0 0 58 46" fill="none" xmlns="http://www.w3.org/2000/svg">
<path d="M6.33341 45.6667C4.77508 45.6667 3.44153 45.1123 2.33275 44.0035C1.22397 42.8947 0.668637 41.5602 0.666748 40V6.00001C0.666748 4.44168 1.22208 3.10812 2.33275 1.99934C3.44341 0.890565 4.77697 0.335232 6.33341 0.333344H51.6667C53.2251 0.333344 54.5596 0.888676 55.6702 1.99934C56.7809 3.11001 57.3353 4.44357 57.3334 6.00001V40C57.3334 41.5583 56.779 42.8928 55.6702 44.0035C54.5615 45.1142 53.227 45.6686 51.6667 45.6667H6.33341ZM29.0001 25.8333L51.6667 11.6667V6.00001L29.0001 20.1667L6.33341 6.00001V11.6667L29.0001 25.8333Z" fill="black"/>
</svg>
