<svg width="45" height="45" viewBox="0 0 45 45" fill="none" xmlns="http://www.w3.org/2000/svg">
<path d="M22.5 24.0187L17.1562 18.675C16.7437 18.2625 16.2285 18.0562 15.6105 18.0562C14.9925 18.0562 14.4577 18.2625 14.0062 18.675C13.5562 19.125 13.3312 19.6597 13.3312 20.2792C13.3312 20.8987 13.5562 21.4327 14.0062 21.8812L20.925 28.8C21.375 29.25 21.9 29.475 22.5 29.475C23.1 29.475 23.625 29.25 24.075 28.8L31.05 21.825C31.5 21.375 31.7152 20.85 31.6957 20.25C31.6762 19.65 31.4422 19.125 30.9937 18.675C30.5437 18.2625 30.0187 18.0465 29.4187 18.027C28.8187 18.0075 28.2937 18.2235 27.8437 18.675L22.5 24.0187ZM22.5 45C19.3875 45 16.4625 44.409 13.725 43.227C10.9875 42.045 8.60625 40.4422 6.58125 38.4187C4.55625 36.3937 2.9535 34.0125 1.773 31.275C0.5925 28.5375 0.0015 25.6125 0 22.5C0 19.3875 0.591 16.4625 1.773 13.725C2.955 10.9875 4.55775 8.60625 6.58125 6.58125C8.60625 4.55625 10.9875 2.9535 13.725 1.773C16.4625 0.5925 19.3875 0.0015 22.5 0C25.6125 0 28.5375 0.591 31.275 1.773C34.0125 2.955 36.3937 4.55775 38.4187 6.58125C40.4437 8.60625 42.0472 10.9875 43.2292 13.725C44.4112 16.4625 45.0015 19.3875 45 22.5C45 25.6125 44.409 28.5375 43.227 31.275C42.045 34.0125 40.4422 36.3937 38.4187 38.4187C36.3937 40.4437 34.0125 42.0472 31.275 43.2292C28.5375 44.4112 25.6125 45.0015 22.5 45Z" fill="#25475D"/>
</svg>
