<svg width="25" height="25" viewBox="0 0 25 25" fill="none" xmlns="http://www.w3.org/2000/svg">
<path d="M8.92366 24.0273C10.0837 24.3778 11.2557 24.5832 12.5003 24.5832C15.705 24.5832 18.7785 23.3101 21.0445 21.044C23.3106 18.778 24.5837 15.7045 24.5837 12.4998C24.5837 10.913 24.2711 9.34176 23.6639 7.87574C23.0566 6.40973 22.1666 5.07767 21.0445 3.95563C19.9225 2.83359 18.5904 1.94354 17.1244 1.33629C15.6584 0.729049 14.0871 0.416504 12.5003 0.416504C10.9135 0.416504 9.34225 0.729049 7.87623 1.33629C6.41022 1.94354 5.07816 2.83359 3.95612 3.95563C1.69005 6.22169 0.416992 9.29514 0.416992 12.4998C0.416992 17.6353 3.64324 22.0457 8.19866 23.7857C8.08991 22.8432 7.98116 21.2844 8.19866 20.209L9.58824 14.2398C9.58824 14.2398 9.23783 13.539 9.23783 12.4273C9.23783 10.7598 10.277 9.51525 11.4612 9.51525C12.5003 9.51525 12.9837 10.2765 12.9837 11.2553C12.9837 12.2944 12.2949 13.7807 11.9445 15.2065C11.7391 16.3907 12.5728 17.4298 13.7812 17.4298C15.932 17.4298 17.5995 15.134 17.5995 11.8957C17.5995 8.99567 15.5212 7.014 12.5366 7.014C9.12908 7.014 7.12324 9.5515 7.12324 12.2219C7.12324 13.2611 7.46158 14.3123 8.01741 15.0011C8.12616 15.0736 8.12616 15.1703 8.08991 15.3515L7.73949 16.6686C7.73949 16.874 7.60658 16.9465 7.40116 16.8015C5.85449 16.1248 4.96033 13.9257 4.96033 12.1494C4.96033 8.33109 7.66699 4.86317 12.887 4.86317C17.0437 4.86317 20.282 7.84775 20.282 11.8111C20.282 15.9678 17.7082 19.3028 14.0228 19.3028C12.8507 19.3028 11.7028 18.6744 11.292 17.9373L10.4824 20.8011C10.2045 21.8403 9.44324 23.2298 8.92366 24.0636V24.0273Z" fill="#25475D"/>
</svg>
