<svg width="25" height="24" viewBox="0 0 25 24" fill="none" xmlns="http://www.w3.org/2000/svg">
<path d="M12.5003 0.416504C10.9135 0.416504 9.34225 0.729049 7.87623 1.33629C6.41022 1.94354 5.07816 2.83359 3.95612 3.95563C1.69005 6.2217 0.416992 9.29514 0.416992 12.4998C0.416992 17.8407 3.88491 22.3719 8.68199 23.979C9.28616 24.0757 9.47949 23.7011 9.47949 23.3748V21.3328C6.13241 22.0578 5.41949 19.7136 5.41949 19.7136C4.86366 18.3119 4.07824 17.9373 4.07824 17.9373C2.97866 17.1882 4.16283 17.2123 4.16283 17.2123C5.37116 17.2969 6.01158 18.4569 6.01158 18.4569C7.06283 20.2936 8.83908 19.7498 9.52782 19.4598C9.63657 18.6744 9.95074 18.1428 10.2891 17.8407C7.60658 17.5386 4.79116 16.4994 4.79116 11.8957C4.79116 10.5544 5.25033 9.479 6.03574 8.62109C5.91491 8.31901 5.49199 7.06234 6.15658 5.43109C6.15658 5.43109 7.17158 5.10484 9.47949 6.66359C10.4341 6.39775 11.4732 6.26484 12.5003 6.26484C13.5274 6.26484 14.5666 6.39775 15.5212 6.66359C17.8291 5.10484 18.8441 5.43109 18.8441 5.43109C19.5087 7.06234 19.0857 8.31901 18.9649 8.62109C19.7503 9.479 20.2095 10.5544 20.2095 11.8957C20.2095 16.5115 17.382 17.5265 14.6874 17.8286C15.1224 18.2032 15.5212 18.9403 15.5212 20.064V23.3748C15.5212 23.7011 15.7145 24.0878 16.3307 23.979C21.1278 22.3598 24.5837 17.8407 24.5837 12.4998C24.5837 10.913 24.2711 9.34176 23.6639 7.87575C23.0566 6.40973 22.1666 5.07767 21.0445 3.95563C19.9225 2.83359 18.5904 1.94354 17.1244 1.33629C15.6584 0.729049 14.0871 0.416504 12.5003 0.416504Z" fill="#25475D"/>
</svg>
