<svg width="14" height="11" viewBox="0 0 14 11" fill="none" xmlns="http://www.w3.org/2000/svg">
<path d="M13.273 6.03026C13.4136 5.88962 13.4926 5.69889 13.4926 5.50001C13.4926 5.30114 13.4136 5.11041 13.273 4.96976L9.03025 0.727013C8.96106 0.65538 8.87831 0.598244 8.7868 0.558937C8.6953 0.51963 8.59689 0.49894 8.4973 0.498075C8.39772 0.49721 8.29896 0.516186 8.20678 0.553897C8.11461 0.591607 8.03087 0.647297 7.96045 0.717717C7.89003 0.788136 7.83434 0.871875 7.79663 0.964047C7.75892 1.05622 7.73995 1.15498 7.74081 1.25456C7.74168 1.35415 7.76237 1.45256 7.80167 1.54407C7.84098 1.63557 7.89812 1.71833 7.96975 1.78751L10.9322 4.75001L1 4.75001C0.801088 4.75001 0.610322 4.82903 0.469669 4.96968C0.329017 5.11034 0.25 5.3011 0.25 5.50001C0.25 5.69893 0.329017 5.88969 0.469669 6.03034C0.610322 6.171 0.801088 6.25001 1 6.25001L10.9322 6.25001L7.96975 9.21251C7.83313 9.35397 7.75754 9.54342 7.75924 9.74007C7.76095 9.93671 7.83983 10.1248 7.97889 10.2639C8.11794 10.4029 8.30605 10.4818 8.5027 10.4835C8.69935 10.4852 8.8888 10.4096 9.03025 10.273L13.273 6.03026Z" fill="white"/>
</svg>
