<svg width="87" height="87" viewBox="0 0 87 87" fill="none" xmlns="http://www.w3.org/2000/svg">
<g clip-path="url(#clip0_113_326)">
<path d="M43.4983 86.9966C67.5218 86.9966 86.9966 67.5218 86.9966 43.4983C86.9966 19.4749 67.5218 0 43.4983 0C19.4749 0 0 19.4749 0 43.4983C0 67.5218 19.4749 86.9966 43.4983 86.9966Z" fill="#25475D"/>
<path d="M60.1691 25.4138C58.3055 25.4138 54.8827 25.6303 50.7192 25.9787C53.1882 19.4781 55.6606 14.5807 57.6967 13.0621C58.5625 12.4127 59.4317 12.5852 59.5163 12.2368C59.6888 11.6314 58.2175 11.0226 56.7429 10.7216C55.2243 10.4172 54.0135 10.2447 53.7091 10.8941C52.5388 13.4071 50.3269 19.0858 47.8579 26.1917C37.3258 27.1455 23.8478 28.7047 19.0789 29.7464C17.7767 30.0508 18.947 32.4758 19.6403 32.2594C27.1826 30.0508 38.7125 28.3597 47.4656 27.362C45.8827 32.0294 44.2153 37.2583 42.6865 42.6055C39.0304 46.6607 29.7192 56.4589 25.7925 56.53C23.9729 56.53 23.0631 55.2312 23.0631 53.2357C23.0631 49.4646 24.6662 45.477 26.6617 42.5311C27.3551 43.3969 28.0484 44.2661 29.4791 44.2661C31.8635 44.2661 34.204 41.1884 34.204 39.1523C34.204 37.5931 33.0777 36.5514 30.9977 36.5514C26.2728 36.5514 20.5535 45.0035 20.5535 51.4601C20.5535 55.4916 22.9819 57.4837 26.2762 57.4837C29.7463 57.4837 37.5456 49.7351 41.9966 45.0846C39.2469 55.0519 37.0823 65.1816 36.8962 72.6089C36.7677 78.6325 40.363 80.7566 41.5332 80.3676C42.9639 79.9347 39.5817 79.1534 39.8015 72.9133C40.2345 61.5559 45.1758 40.9685 50.3337 27.0576C54.5377 26.6247 57.744 26.4082 58.9582 26.4082C66.2401 26.4522 66.4565 27.9674 65.7192 28.4882C65.2423 28.7926 65.6313 29.442 65.9357 29.442C66.5445 29.3981 67.062 28.7926 67.062 27.9674C67.062 27.4026 66.4126 25.4105 60.1691 25.4105V25.4138ZM32.3032 37.8096C32.6922 37.8096 32.8241 38.07 32.8241 38.3744C32.8241 40.8873 29.7463 43.0114 28.62 43.0114C28.0992 43.0114 27.4058 42.663 26.9729 42.0576C28.7925 39.5006 30.832 37.8096 32.3032 37.8096Z" fill="#CBBBA0"/>
<path d="M48.6155 54.0645C47.8342 54.0645 46.9514 55.2617 46.9514 56.2493C46.9514 57.0306 47.523 57.4466 48.0946 57.4466C48.8759 57.4466 49.7586 56.2493 49.7586 55.2617C49.7586 54.4805 49.187 54.0645 48.6155 54.0645Z" fill="#CBBBA0"/>
</g>
<defs>
<clipPath id="clip0_113_326">
<rect width="87" height="87" fill="white"/>
</clipPath>
</defs>
</svg>
