<svg width="79" height="63" viewBox="0 0 79 63" fill="none" xmlns="http://www.w3.org/2000/svg">
<g clip-path="url(#clip0_21_571)">
<path d="M22.74 35.33C22.74 30.25 25.02 25.7 28.62 22.65H0V48H28.62C25.02 44.96 22.74 40.41 22.74 35.33Z" fill="#25475D"/>
<path d="M56.08 35.33C56.08 40.41 53.8 44.96 50.2 48H78.82V22.65H50.2C53.8 25.7 56.08 30.25 56.08 35.33Z" fill="#25475D"/>
<path d="M75.47 12.36H72.07C72.1 12.24 72.12 12.12 72.12 11.99V11.1C72.12 10.31 71.47 9.66 70.68 9.66H67.12C66.33 9.66 65.68 10.31 65.68 11.1V11.99C65.68 12.12 65.7 12.24 65.73 12.36H58.17L55.68 6.04C55.18 4.76 53.94 3.91 52.56 3.91H26.26C24.88 3.91 23.64 4.76 23.14 6.04L20.65 12.36H3.35C1.5 12.36 0 13.86 0 15.71V20.65H31.53C33.88 19.38 36.56 18.66 39.41 18.66C42.26 18.66 44.94 19.38 47.29 20.65H78.82V15.71C78.82 13.86 77.32 12.36 75.47 12.36ZM17.07 16.73C17.07 17.63 16.34 18.36 15.44 18.36H7.06C6.16 18.36 5.43 17.63 5.43 16.73V16.6C5.43 15.7 6.16 14.97 7.06 14.97H15.44C16.34 14.97 17.07 15.7 17.07 16.6V16.73ZM48.19 9.92C48.19 10.82 47.46 11.54 46.56 11.54H32.26C31.36 11.54 30.63 10.82 30.63 9.92V8.06C30.63 7.16 31.36 6.43 32.26 6.43H46.56C47.46 6.43 48.19 7.16 48.19 8.06V9.92ZM60.31 16.36C59.82 16.36 59.43 15.96 59.43 15.47C59.43 14.98 59.82 14.58 60.31 14.58C60.8 14.58 61.2 14.98 61.2 15.47C61.2 15.96 60.8 16.36 60.31 16.36ZM63.42 16.36C62.93 16.36 62.53 15.96 62.53 15.47C62.53 14.98 62.93 14.58 63.42 14.58C63.91 14.58 64.31 14.98 64.31 15.47C64.31 15.96 63.91 16.36 63.42 16.36Z" fill="#25475D"/>
<path d="M39.41 51.99C36.55 51.99 33.86 51.27 31.51 50H0V59.38C0 61.23 1.5 62.73 3.35 62.73H75.47C77.32 62.73 78.82 61.23 78.82 59.38V50H47.31C44.96 51.27 42.27 51.99 39.41 51.99Z" fill="#25475D"/>
<path d="M39.41 45.41C44.97 45.41 49.49 40.88 49.49 35.33C49.49 29.78 44.97 25.25 39.41 25.25C33.85 25.25 29.33 29.77 29.33 35.33C29.33 40.89 33.85 45.41 39.41 45.41Z" fill="#25475D"/>
<path d="M30.22 48C30.72 48.37 31.23 48.7 31.77 49C32.46 49.39 33.18 49.72 33.93 50C35.63 50.64 37.48 50.99 39.41 50.99C41.34 50.99 43.19 50.64 44.89 50C45.64 49.72 46.36 49.39 47.05 49C47.59 48.7 48.1 48.37 48.6 48C52.53 45.16 55.08 40.53 55.08 35.33C55.08 30.13 52.53 25.49 48.6 22.65C48.1 22.28 47.59 21.95 47.05 21.65C46.36 21.26 45.64 20.93 44.89 20.65C43.19 20.01 41.34 19.66 39.41 19.66C37.48 19.66 35.63 20.01 33.93 20.65C33.18 20.93 32.46 21.26 31.77 21.65C31.23 21.95 30.72 22.28 30.22 22.65C26.29 25.49 23.74 30.12 23.74 35.33C23.74 40.54 26.29 45.16 30.22 48ZM39.41 22.85C46.29 22.85 51.89 28.45 51.89 35.33C51.89 42.21 46.29 47.8 39.41 47.8C32.53 47.8 26.93 42.21 26.93 35.33C26.93 28.45 32.53 22.85 39.41 22.85Z" fill="#25475D"/>
<path d="M13.1304 3.43L14.6904 4.01C14.8004 4.05 14.8904 4.14 14.9304 4.25L15.5104 5.81C15.6404 6.17 16.1504 6.17 16.2904 5.81L16.8704 4.25C16.9104 4.14 17.0004 4.05 17.1104 4.01L18.6704 3.43C19.0304 3.3 19.0304 2.79 18.6704 2.65L17.1104 2.07C17.0004 2.03 16.9104 1.94 16.8704 1.83L16.2904 0.27C16.1604 -0.09 15.6504 -0.09 15.5104 0.27L14.9304 1.83C14.8904 1.94 14.8004 2.03 14.6904 2.07L13.1304 2.65C12.7704 2.78 12.7704 3.29 13.1304 3.43Z" fill="#25475D"/>
<path d="M5.53001 6.47001L7.73001 7.28001C7.84001 7.32001 7.93001 7.41001 7.97001 7.52001L8.78001 9.72001C8.91001 10.08 9.42001 10.08 9.56001 9.72001L10.37 7.52001C10.41 7.41001 10.5 7.32001 10.61 7.28001L12.81 6.47001C13.17 6.34001 13.17 5.83001 12.81 5.69001L10.61 4.88001C10.5 4.84001 10.41 4.75001 10.37 4.64001L9.56001 2.44001C9.43001 2.08001 8.92001 2.08001 8.78001 2.44001L7.97001 4.64001C7.93001 4.75001 7.84001 4.84001 7.73001 4.88001L5.53001 5.69001C5.17001 5.82001 5.17001 6.33001 5.53001 6.47001Z" fill="#25475D"/>
</g>
<defs>
<clipPath id="clip0_21_571">
<rect width="78.82" height="62.73" fill="white"/>
</clipPath>
</defs>
</svg>
